<mxfile host="app.diagrams.net" agent="Mozilla/5.0 (Windows NT 10.0; Win64; x64) AppleWebKit/537.36 (KHTML, like Gecko) Chrome/130.0.0.0 Safari/537.36 Edg/130.0.0.0" version="24.8.6">
  <diagram id="Ht1M8jgEwFfnCIfOTk4-" name="Page-1">
    <mxGraphModel dx="1149" dy="631" grid="1" gridSize="10" guides="1" tooltips="1" connect="1" arrows="1" fold="1" page="1" pageScale="1" pageWidth="1169" pageHeight="827" math="0" shadow="0">
      <root>
        <mxCell id="0" />
        <mxCell id="1" parent="0" />
        <mxCell id="UEzPUAAOIrF-is8g5C7q-74" value="AWS Cloud" style="points=[[0,0],[0.25,0],[0.5,0],[0.75,0],[1,0],[1,0.25],[1,0.5],[1,0.75],[1,1],[0.75,1],[0.5,1],[0.25,1],[0,1],[0,0.75],[0,0.5],[0,0.25]];outlineConnect=0;gradientColor=none;html=1;whiteSpace=wrap;fontSize=12;fontStyle=0;shape=mxgraph.aws4.group;grIcon=mxgraph.aws4.group_aws_cloud_alt;strokeColor=#232F3E;fillColor=none;verticalAlign=top;align=left;spacingLeft=30;fontColor=#232F3E;dashed=0;labelBackgroundColor=#ffffff;container=1;pointerEvents=0;collapsible=0;recursiveResize=0;" parent="1" vertex="1">
          <mxGeometry x="190" y="210" width="640" height="360" as="geometry" />
        </mxCell>
        <mxCell id="rGrs-xFU9-m97U80FOdN-2" value="Amazon API Gateway" style="sketch=0;outlineConnect=0;fontColor=#232F3E;gradientColor=none;strokeColor=#ffffff;fillColor=#232F3E;dashed=0;verticalLabelPosition=middle;verticalAlign=bottom;align=center;html=1;whiteSpace=wrap;fontSize=10;fontStyle=1;spacing=3;shape=mxgraph.aws4.productIcon;prIcon=mxgraph.aws4.api_gateway;" vertex="1" parent="UEzPUAAOIrF-is8g5C7q-74">
          <mxGeometry x="30" y="229.5" width="50" height="80.5" as="geometry" />
        </mxCell>
        <mxCell id="rGrs-xFU9-m97U80FOdN-25" value="" style="edgeStyle=orthogonalEdgeStyle;rounded=0;orthogonalLoop=1;jettySize=auto;html=1;" edge="1" parent="UEzPUAAOIrF-is8g5C7q-74">
          <mxGeometry relative="1" as="geometry">
            <mxPoint x="320.20778263521765" y="249.5844827586207" as="sourcePoint" />
            <mxPoint x="270" y="250" as="targetPoint" />
          </mxGeometry>
        </mxCell>
        <mxCell id="rGrs-xFU9-m97U80FOdN-6" value="" style="sketch=0;outlineConnect=0;fontColor=#232F3E;gradientColor=none;fillColor=#01A88D;strokeColor=none;dashed=0;verticalLabelPosition=bottom;verticalAlign=top;align=center;html=1;fontSize=12;fontStyle=0;aspect=fixed;pointerEvents=1;shape=mxgraph.aws4.sagemaker_model;" vertex="1" parent="UEzPUAAOIrF-is8g5C7q-74">
          <mxGeometry x="320" y="216.86" width="56.25" height="56.25" as="geometry" />
        </mxCell>
        <mxCell id="rGrs-xFU9-m97U80FOdN-24" value="" style="edgeStyle=orthogonalEdgeStyle;rounded=0;orthogonalLoop=1;jettySize=auto;html=1;" edge="1" parent="UEzPUAAOIrF-is8g5C7q-74" source="rGrs-xFU9-m97U80FOdN-7">
          <mxGeometry relative="1" as="geometry">
            <mxPoint x="380" y="250" as="targetPoint" />
            <Array as="points">
              <mxPoint x="403" y="250" />
              <mxPoint x="403" y="250" />
            </Array>
          </mxGeometry>
        </mxCell>
        <mxCell id="rGrs-xFU9-m97U80FOdN-7" value="" style="sketch=0;outlineConnect=0;fontColor=#232F3E;gradientColor=none;fillColor=#01A88D;strokeColor=none;dashed=0;verticalLabelPosition=bottom;verticalAlign=top;align=center;html=1;fontSize=12;fontStyle=0;aspect=fixed;pointerEvents=1;shape=mxgraph.aws4.sagemaker_train;" vertex="1" parent="UEzPUAAOIrF-is8g5C7q-74">
          <mxGeometry x="430" y="220.24" width="59.4" height="49.5" as="geometry" />
        </mxCell>
        <mxCell id="rGrs-xFU9-m97U80FOdN-23" value="" style="edgeStyle=orthogonalEdgeStyle;rounded=0;orthogonalLoop=1;jettySize=auto;html=1;" edge="1" parent="UEzPUAAOIrF-is8g5C7q-74">
          <mxGeometry relative="1" as="geometry">
            <mxPoint x="539.4" y="249.8104651162791" as="sourcePoint" />
            <mxPoint x="489.4" y="249.95" as="targetPoint" />
            <Array as="points">
              <mxPoint x="515" y="250.26999999999998" />
            </Array>
          </mxGeometry>
        </mxCell>
        <mxCell id="rGrs-xFU9-m97U80FOdN-8" value="" style="sketch=0;outlineConnect=0;fontColor=#232F3E;gradientColor=none;fillColor=#01A88D;strokeColor=none;dashed=0;verticalLabelPosition=bottom;verticalAlign=top;align=center;html=1;fontSize=12;fontStyle=0;aspect=fixed;pointerEvents=1;shape=mxgraph.aws4.sagemaker_notebook;" vertex="1" parent="UEzPUAAOIrF-is8g5C7q-74">
          <mxGeometry x="540" y="220.24" width="51.66" height="59.25" as="geometry" />
        </mxCell>
        <mxCell id="rGrs-xFU9-m97U80FOdN-36" value="" style="edgeStyle=orthogonalEdgeStyle;rounded=0;orthogonalLoop=1;jettySize=auto;html=1;" edge="1" parent="UEzPUAAOIrF-is8g5C7q-74">
          <mxGeometry relative="1" as="geometry">
            <mxPoint x="125.25999999999999" y="111" as="sourcePoint" />
            <mxPoint x="90" y="111" as="targetPoint" />
          </mxGeometry>
        </mxCell>
        <mxCell id="rGrs-xFU9-m97U80FOdN-9" value="Amazon SNS" style="sketch=0;outlineConnect=0;fontColor=#232F3E;gradientColor=none;strokeColor=#ffffff;fillColor=#232F3E;dashed=0;verticalLabelPosition=middle;verticalAlign=bottom;align=center;html=1;whiteSpace=wrap;fontSize=10;fontStyle=1;spacing=-5;shape=mxgraph.aws4.productIcon;prIcon=mxgraph.aws4.sns;" vertex="1" parent="UEzPUAAOIrF-is8g5C7q-74">
          <mxGeometry x="125.25999999999999" y="83" width="60" height="70" as="geometry" />
        </mxCell>
        <mxCell id="rGrs-xFU9-m97U80FOdN-10" value="Email" style="sketch=0;outlineConnect=0;fontColor=#232F3E;gradientColor=none;strokeColor=#232F3E;fillColor=#ffffff;dashed=0;verticalLabelPosition=bottom;verticalAlign=top;align=center;html=1;fontSize=12;fontStyle=0;aspect=fixed;shape=mxgraph.aws4.resourceIcon;resIcon=mxgraph.aws4.email;" vertex="1" parent="UEzPUAAOIrF-is8g5C7q-74">
          <mxGeometry x="20" y="80" width="60" height="60" as="geometry" />
        </mxCell>
        <mxCell id="rGrs-xFU9-m97U80FOdN-18" value="" style="endArrow=classic;startArrow=classic;html=1;rounded=0;" edge="1" parent="UEzPUAAOIrF-is8g5C7q-74">
          <mxGeometry width="50" height="50" relative="1" as="geometry">
            <mxPoint x="90" y="249.57999999999998" as="sourcePoint" />
            <mxPoint x="130" y="250" as="targetPoint" />
          </mxGeometry>
        </mxCell>
        <mxCell id="rGrs-xFU9-m97U80FOdN-34" value="" style="edgeStyle=orthogonalEdgeStyle;rounded=0;orthogonalLoop=1;jettySize=auto;html=1;" edge="1" parent="UEzPUAAOIrF-is8g5C7q-74" source="rGrs-xFU9-m97U80FOdN-19">
          <mxGeometry relative="1" as="geometry">
            <mxPoint x="155" y="160" as="targetPoint" />
          </mxGeometry>
        </mxCell>
        <mxCell id="rGrs-xFU9-m97U80FOdN-19" value="Trigger&lt;br&gt;Endpoint" style="sketch=0;outlineConnect=0;fontColor=#232F3E;gradientColor=none;strokeColor=#232F3E;fillColor=#ffffff;dashed=0;verticalLabelPosition=bottom;verticalAlign=top;align=center;html=1;fontSize=12;fontStyle=0;aspect=fixed;shape=mxgraph.aws4.resourceIcon;resIcon=mxgraph.aws4.lambda_function;" vertex="1" parent="UEzPUAAOIrF-is8g5C7q-74">
          <mxGeometry x="130" y="224.61" width="50.51" height="50.51" as="geometry" />
        </mxCell>
        <mxCell id="rGrs-xFU9-m97U80FOdN-26" value="Model" style="text;html=1;align=center;verticalAlign=middle;whiteSpace=wrap;rounded=0;" vertex="1" parent="UEzPUAAOIrF-is8g5C7q-74">
          <mxGeometry x="320" y="279.49" width="60" height="30" as="geometry" />
        </mxCell>
        <mxCell id="rGrs-xFU9-m97U80FOdN-27" value="Train" style="text;html=1;align=center;verticalAlign=middle;whiteSpace=wrap;rounded=0;" vertex="1" parent="UEzPUAAOIrF-is8g5C7q-74">
          <mxGeometry x="424.4" y="281.49" width="60" height="30" as="geometry" />
        </mxCell>
        <mxCell id="rGrs-xFU9-m97U80FOdN-28" value="Jupyter notebook&amp;nbsp;" style="text;html=1;align=center;verticalAlign=middle;whiteSpace=wrap;rounded=0;" vertex="1" parent="UEzPUAAOIrF-is8g5C7q-74">
          <mxGeometry x="540" y="281.49" width="60" height="30" as="geometry" />
        </mxCell>
        <mxCell id="rGrs-xFU9-m97U80FOdN-31" value="Endpoint" style="sketch=0;outlineConnect=0;fontColor=#232F3E;gradientColor=none;fillColor=#8C4FFF;strokeColor=none;dashed=0;verticalLabelPosition=bottom;verticalAlign=top;align=center;html=1;fontSize=12;fontStyle=0;aspect=fixed;pointerEvents=1;shape=mxgraph.aws4.endpoint;" vertex="1" parent="UEzPUAAOIrF-is8g5C7q-74">
          <mxGeometry x="227" y="230.74" width="38.26" height="38.26" as="geometry" />
        </mxCell>
        <mxCell id="rGrs-xFU9-m97U80FOdN-33" value="" style="endArrow=classic;startArrow=classic;html=1;rounded=0;" edge="1" parent="UEzPUAAOIrF-is8g5C7q-74">
          <mxGeometry width="50" height="50" relative="1" as="geometry">
            <mxPoint x="180" y="249.14999999999998" as="sourcePoint" />
            <mxPoint x="220" y="249.57000000000005" as="targetPoint" />
          </mxGeometry>
        </mxCell>
        <mxCell id="rGrs-xFU9-m97U80FOdN-12" value="User" style="sketch=0;outlineConnect=0;fontColor=#232F3E;gradientColor=none;strokeColor=#232F3E;fillColor=#ffffff;dashed=0;verticalLabelPosition=bottom;verticalAlign=top;align=center;html=1;fontSize=12;fontStyle=0;aspect=fixed;shape=mxgraph.aws4.resourceIcon;resIcon=mxgraph.aws4.user;" vertex="1" parent="1">
          <mxGeometry x="50" y="414" width="60" height="60" as="geometry" />
        </mxCell>
        <mxCell id="rGrs-xFU9-m97U80FOdN-16" value="" style="endArrow=classic;html=1;rounded=0;" edge="1" parent="1" target="rGrs-xFU9-m97U80FOdN-2">
          <mxGeometry width="50" height="50" relative="1" as="geometry">
            <mxPoint x="80" y="550" as="sourcePoint" />
            <mxPoint x="210" y="530" as="targetPoint" />
            <Array as="points">
              <mxPoint x="245" y="550" />
            </Array>
          </mxGeometry>
        </mxCell>
        <mxCell id="rGrs-xFU9-m97U80FOdN-17" value="" style="endArrow=classic;html=1;rounded=0;" edge="1" parent="1">
          <mxGeometry width="50" height="50" relative="1" as="geometry">
            <mxPoint x="80" y="550" as="sourcePoint" />
            <mxPoint x="80" y="500" as="targetPoint" />
          </mxGeometry>
        </mxCell>
        <mxCell id="rGrs-xFU9-m97U80FOdN-38" value="" style="edgeStyle=orthogonalEdgeStyle;rounded=0;orthogonalLoop=1;jettySize=auto;html=1;" edge="1" parent="1" source="rGrs-xFU9-m97U80FOdN-10" target="rGrs-xFU9-m97U80FOdN-12">
          <mxGeometry relative="1" as="geometry">
            <Array as="points">
              <mxPoint x="80" y="320" />
            </Array>
          </mxGeometry>
        </mxCell>
      </root>
    </mxGraphModel>
  </diagram>
</mxfile>
